# xmcd
#
# Track frame offsets: 
#        150
#        14266
#        28588
#        37011
#        51649
#        64603
#        78283
#        91640
#        103991
#        119923
#        133794
#        147247
#        161431
#        173414
#        185596
#        201055
#        213774
#        226604
#        241634
#        257399
#        271580
#        284124
#        298284
#        310645
#        322981
#        339928
#
# Disc length: 4724 seconds
#
# Revision: 1
# Processed by: cddbd v1.5.2PL0 Copyright (c) Steve Scherf et al.
# Submitted via: ExactAudioCopy v1.0b1
#
DISCID=6b12721a
DTITLE=Various Artist - Slow 'N' Moody Black and Bluesy and More
DYEAR=2009
DGENRE=R&B
TTITLE0=Z.Z. Hill - Nothing Can Change The Love I Have For You (mono)
TTITLE1=Clay Hammond - You Messed Up My Mind (mono)
TTITLE2=Jimmy Holiday - I Can't Stand It (mono)
TTITLE3=Arthur and Mary - Let's Get Together (mono)
TTITLE4=Jeannette Jones - Darling I'm Standing By You (mono)
TTITLE5=Mary Love - Baby I'll Come (mono)
TTITLE6=Jackie Day - If I'd Lose You (mono)
TTITLE7=Tami Young - I Don't Wanna Lose You (mono)
TTITLE8=Little Henry and The Shamrocks - (Baby) Come To Me (mono)
TTITLE9=B.B. King - Ain't Nobody's Business (mono)
TTITLE10=Johnny Copeland - Every Dog's Got His Day (mono)
TTITLE11=Terry and The Tyrants - Weep No More (mono)
TTITLE12=Jimmy Robins - It's Real (Part 1) (mono)
TTITLE13=Willi Gauff and The Love Brothers - Whenever I Can't Sleep (mon
TTITLE13=o)
TTITLE14=Joe Haywood - The Last One To Know (mono)
TTITLE15=Yvonne Baker - A Woman Needs A Man (mono)
TTITLE16=Jimmy Holiday - Everybody Needs Somebody (mono)
TTITLE17=Willie Gauff and The Love Brothers - Farewell (mono)
TTITLE18=Tommy Youngblood - Why Should I Be The One (stereo)
TTITLE19=The Mighty Hannibal - I'll Come Back To You (mono)
TTITLE20=Stacy Johnnson - Consider Yourself (mono)
TTITLE21=Larry Davis - The Years Go Passing By (mono)
TTITLE22=Ernie Andrews - I'm Falling For You (mono)
TTITLE23=Larry Sanders - I'm In Love (mono)
TTITLE24=Millie Foster - Sweet Bitter Love (stereo)
TTITLE25=Ruth Davis - The Smartest Fool (mono)
EXTD=
EXTT0=
EXTT1=
EXTT2=
EXTT3=
EXTT4=
EXTT5=
EXTT6=
EXTT7=
EXTT8=
EXTT9=
EXTT10=
EXTT11=
EXTT12=
EXTT13=
EXTT14=
EXTT15=
EXTT16=
EXTT17=
EXTT18=
EXTT19=
EXTT20=
EXTT21=
EXTT22=
EXTT23=
EXTT24=
EXTT25=
PLAYORDER=
